# xmcd
#
# Track frame offsets: 
#        150
#        9676
#        22319
#        36764
#        52439
#        65671
#        82840
#        93120
#        110311
#        123978
#        136402
#        155556
#        163757
#
# Disc length: 2340 seconds
#
# Revision: 0
# Processed by: cddbd v1.5.1PL0 Copyright (c) Steve Scherf et al.
# Submitted via: ExactAudioCopy v0.95a5
#
DISCID=af09220d
DTITLE=Alice Zincone and Rick Lafleur - Moma's Voice
DYEAR=2005
DGENRE=Bluegrass
TTITLE0=Way Downtown
TTITLE1=Moma's Voice
TTITLE2=Stone Wall
TTITLE3=Memories of East Texas
TTITLE4=Last of You
TTITLE5=Mr. Engineer
TTITLE6=Ballad of William McKinney
TTITLE7=L and N Don't Stop Here Anymore
TTITLE8=Tomorrow is a Long Time
TTITLE9=Progress Blues
TTITLE10=Tecumseh Valley
TTITLE11=Big Black Train
TTITLE12=Old Fashioned Preacher
EXTD=
EXTT0=
EXTT1=
EXTT2=
EXTT3=
EXTT4=
EXTT5=
EXTT6=
EXTT7=
EXTT8=
EXTT9=
EXTT10=
EXTT11=
EXTT12=
PLAYORDER=
